# xmcd CD database file
#
# Track frame offsets:
#	150
#	25241
#	48024
#	68898
#	87022
#	108397
#	136626
#	168845
#	192944
#	213187
#	233915
#
# Disc length: 3204 seconds
#
# Revision: 0
# Processed by: cddbd v1.5.1PL0 Copyright (c) Steve Scherf et al.
# Submitted via: CDex 1.51
#
DISCID=830c820b
DTITLE=Pernilla Aidt - Serena
DYEAR=2003
DGENRE=New Age
TTITLE0=Letter To You
TTITLE1=Hear My Song
TTITLE2=L'Aube
TTITLE3=Evident Like Breathing
TTITLE4=Rush Of Rain
TTITLE5=Sea Meets Sky
TTITLE6=Open Sea
TTITLE7=Northern Star
TTITLE8=Face The Sun
TTITLE9=Lullaby
TTITLE10=Hear His Song
EXTD=YEAR: 2003
EXTT0=
EXTT1=
EXTT2=
EXTT3=
EXTT4=
EXTT5=
EXTT6=
EXTT7=
EXTT8=
EXTT9=
EXTT10=
PLAYORDER=
